<svg version="1.1" id="Layer_1" xmlns="http://www.w3.org/2000/svg" xmlns:xlink="http://www.w3.org/1999/xlink" x="0px" y="0px"
	 width="100%" viewBox="0 0 273 346" enable-background="new 0 0 273 346" xml:space="preserve">
<path fill="#FEFEFE" opacity="1.000000" stroke="none" 
	d="
M175.000000,347.000000 
	C116.666687,347.000000 58.833382,347.000000 1.000054,347.000000 
	C1.000036,231.666733 1.000036,116.333481 1.000018,1.000163 
	C91.999886,1.000108 182.999771,1.000108 273.999756,1.000054 
	C273.999817,116.333168 273.999817,231.666336 273.999908,346.999756 
	C241.166672,347.000000 208.333328,347.000000 175.000000,347.000000 
M56.385540,275.061096 
	C75.944923,287.602875 95.504303,300.144653 115.609627,313.036469 
	C115.745903,311.288025 115.882698,310.350067 115.883041,309.412048 
	C115.906120,246.276901 115.949432,183.141678 115.789589,120.006966 
	C115.784470,117.988777 114.186508,115.257782 112.485519,114.070023 
	C92.281631,99.962151 71.920845,86.078850 51.583630,72.162338 
	C50.453007,71.388664 49.168102,70.840446 47.272694,69.819923 
	C47.272694,72.829590 47.272686,74.960274 47.272697,77.090965 
	C47.273064,137.727417 47.412510,198.364609 47.096001,258.999420 
	C47.056881,266.493408 48.395103,271.917023 56.385540,275.061096 
M193.696609,143.134766 
	C203.752380,137.258072 213.762283,131.300354 223.896301,125.561821 
	C226.421387,124.131950 227.244995,122.450272 227.212860,119.608742 
	C227.066025,106.622444 227.051727,93.632378 227.215500,80.646515 
	C227.253555,77.627304 226.300232,75.808922 223.787155,74.155380 
	C207.939011,63.727654 192.189560,53.149960 176.405319,42.625111 
	C170.516052,38.698177 164.620880,34.780113 158.269104,30.552294 
	C158.269104,75.259254 158.269104,119.214996 158.269104,163.988052 
	C170.252167,156.949783 181.669128,150.244003 193.696609,143.134766 
M213.857025,262.601807 
	C218.653885,265.757294 223.450760,268.912781 228.726654,272.383362 
	C228.726654,240.253021 228.726654,208.936188 228.726654,177.360977 
	C227.971619,177.667114 227.501068,177.773254 227.125351,178.022415 
	C206.604233,191.631119 186.075317,205.228210 165.590103,218.890793 
	C161.365677,221.708237 161.535614,227.831604 165.859253,230.712234 
	C181.644455,241.229141 197.461685,251.697998 213.857025,262.601807 
z"/>
<path fill="#D82720" opacity="1.000000" stroke="none" 
	d="
M56.072964,274.878601 
	C48.395103,271.917023 47.056881,266.493408 47.096001,258.999420 
	C47.412510,198.364609 47.273064,137.727417 47.272697,77.090965 
	C47.272686,74.960274 47.272694,72.829590 47.272694,69.819923 
	C49.168102,70.840446 50.453007,71.388664 51.583630,72.162338 
	C71.920845,86.078850 92.281631,99.962151 112.485519,114.070023 
	C114.186508,115.257782 115.784470,117.988777 115.789589,120.006966 
	C115.949432,183.141678 115.906120,246.276901 115.883041,309.412048 
	C115.882698,310.350067 115.745903,311.288025 115.609627,313.036469 
	C95.504303,300.144653 75.944923,287.602875 56.072964,274.878601 
z"/>
<path fill="#030303" opacity="1.000000" stroke="none" 
	d="
M193.391357,143.336487 
	C181.669128,150.244003 170.252167,156.949783 158.269104,163.988052 
	C158.269104,119.214996 158.269104,75.259254 158.269104,30.552294 
	C164.620880,34.780113 170.516052,38.698177 176.405319,42.625111 
	C192.189560,53.149960 207.939011,63.727654 223.787155,74.155380 
	C226.300232,75.808922 227.253555,77.627304 227.215500,80.646515 
	C227.051727,93.632378 227.066025,106.622444 227.212860,119.608742 
	C227.244995,122.450272 226.421387,124.131950 223.896301,125.561821 
	C213.762283,131.300354 203.752380,137.258072 193.391357,143.336487 
z"/>
<path fill="#030303" opacity="1.000000" stroke="none" 
	d="
M213.561920,262.393372 
	C197.461685,251.697998 181.644455,241.229141 165.859253,230.712234 
	C161.535614,227.831604 161.365677,221.708237 165.590103,218.890793 
	C186.075317,205.228210 206.604233,191.631119 227.125351,178.022415 
	C227.501068,177.773254 227.971619,177.667114 228.726654,177.360977 
	C228.726654,208.936188 228.726654,240.253021 228.726654,272.383362 
	C223.450760,268.912781 218.653885,265.757294 213.561920,262.393372 
z"/>
</svg>